<svg xmlns="http://www.w3.org/2000/svg" width="25" height="25" viewBox="0 0 25 25"><path fill="#F5D218" d="M0 0h25v25H0z"/><path fill="#175EB0" d="M14.218 6.853c.017.104.017.23.06.337.17.407.362.805.533 1.212.172.406.328.818.49 1.227.056.14.13.155.23.036.054-.065.11-.13.17-.188.568-.548 1.134-1.098 1.706-1.64.304-.29.62-.564.927-.848.027-.025.052-.096.04-.115a.175.175 0 0 0-.126-.068c-.212-.004-.423.003-.635.005-.16.002-.322 0-.483.003l-2.233.038c-.205.003-.41 0-.68 0zm7.827-1.17c-.068.248-.126.454-.18.662-.098.37-.195.742-.288 1.114-.074.294-.14.59-.214.886-.09.36-.19.717-.28 1.077-.08.322-.15.647-.23.97-.07.277-.147.552-.222.828-.05.192-.104.383-.154.575-.165.634-.33 1.268-.49 1.903-.113.45-.2.91-.33 1.356-.116.405-.26.804-.416 1.195-.27.676-.74 1.21-1.26 1.692-.405.375-.88.642-1.38.87-.53.24-1.095.344-1.652.477-.154.036-.32.02-.48.027.128-.53.24-1.026.368-1.518.11-.422.242-.837.356-1.257.085-.313.15-.63.232-.945.083-.32.177-.637.26-.957.078-.288.15-.578.22-.867l.25-1.004c.086-.35.17-.698.262-1.045.046-.172.1-.344.16-.51.07-.19.027-.268-.168-.268-.792 0-1.584-.002-2.376.01a.394.394 0 0 0-.278.14c-.318.435-.62.883-.926 1.327-.375.544-.747 1.09-1.125 1.63-.195.28-.405.55-.602.828-.524.74-1.05 1.483-1.57 2.228-.35.503-.692 1.013-1.04 1.52-.087.128-.185.25-.267.382-.106.172-.257.186-.44.185-1.483-.004-2.968 0-4.453 0a7.29 7.29 0 0 1-.257-.005c-.124-.004-.134-.07-.103-.177.09-.32.177-.64.26-.96.127-.503.252-1.006.374-1.51.078-.323.146-.65.223-.973.092-.385.194-.768.285-1.153.08-.337.14-.677.223-1.013.112-.465.237-.926.354-1.39.048-.192.09-.386.135-.58.102-.434.18-.875.312-1.3.104-.34.256-.667.414-.987A5.862 5.862 0 0 1 6.96 7.33a7.098 7.098 0 0 1 1.44-.952c.492-.255 1.015-.396 1.533-.564a.285.285 0 0 1 .06-.012c.457-.04.915-.113 1.373-.115 3.38-.01 6.76-.005 10.14-.004h.542z"/></svg>