<svg xmlns="http://www.w3.org/2000/svg" xmlns:xlink="http://www.w3.org/1999/xlink" width="25" height="25" viewBox="0 0 25 25"><defs><path id="a" d="M0 0h25v25H0z"/></defs><clipPath id="b"><use xlink:href="#a" overflow="visible"/></clipPath><path clip-path="url(#b)" fill="#F6F5F5" d="M0 0h25v25H0z"/><path clip-path="url(#b)" fill="#FFF" d="M6.98 11.082c-.067.136-.466 1.577-.46 1.662.034.002.067.006.102.006h2.083c.1 0 .2-.01.295-.03.476-.097.79-.462.8-.926a.65.65 0 0 0-.42-.645.968.968 0 0 0-.38-.068H6.98zm-1.56 5.416c.052.002.088.005.124.005.63 0 1.26.003 1.89-.002a2.8 2.8 0 0 0 .466-.045c.65-.114.995-.665.973-1.19-.012-.285-.19-.622-.573-.673a3.99 3.99 0 0 0-.512-.044c-.56-.006-1.123-.002-1.684-.002h-.12l-.565 1.952zm11.206-3.388c.05.004.086.01.123.01h1.843c.16 0 .32-.01.476-.055.54-.15.893-.49.995-1.05.065-.352-.074-.77-.58-.883a1.667 1.667 0 0 0-.352-.042c-.615-.004-1.23-.002-1.844-.002-.113 0-.115 0-.144.104l-.5 1.808c-.007.033-.01.066-.02.11z"/><path clip-path="url(#b)" fill="#278B5F" d="M16.626 13.11c.008-.044.012-.077.02-.11l.5-1.807c.03-.103.03-.104.142-.104.614 0 1.23-.003 1.844 0 .117.002.236.017.35.043.51.114.647.53.583.884-.103.56-.455.897-.995 1.05a1.74 1.74 0 0 1-.476.053H16.75c-.038 0-.075-.006-.124-.01zM5.42 16.498c.19-.66.375-1.302.564-1.952h.12c.562 0 1.124-.003 1.685.002.17.002.34.022.51.044.383.05.56.388.573.672a1.154 1.154 0 0 1-.973 1.19c-.153.028-.31.046-.466.047-.63.006-1.26.003-1.89.003-.035 0-.07-.003-.125-.005zM6.98 11.082h2.017c.13 0 .258.016.38.067a.65.65 0 0 1 .42.644c-.01.464-.323.83-.8.926a1.53 1.53 0 0 1-.294.03H6.62c-.034 0-.068-.004-.1-.006-.006-.084.393-1.526.46-1.662z"/><path clip-path="url(#b)" fill="#ECB739" d="M0 0h25v6.17H0z"/><path clip-path="url(#b)" fill="#278B5F" d="M25 25V9.255h-4.642c.167.04.336.075.5.128.86.282 1.36.883 1.495 1.768.12.785-.103 1.49-.598 2.107-.322.4-.708.726-1.173.95-.083.04-.167.074-.263.115.023.01.038.02.053.023.31.07.52.26.658.538.094.19.12.393.13.6.01.206.017.412.024.618.018.49.035.978.054 1.466.01.256.023.51.034.767.002.052 0 .105 0 .154-.092.03-2.385.036-2.52.007-.005-.087-.013-.177-.017-.268-.012-.347-.02-.695-.033-1.042-.016-.465-.032-.93-.05-1.396a1.68 1.68 0 0 0-.038-.272.602.602 0 0 0-.41-.47 1.3 1.3 0 0 0-.4-.084c-.55-.01-1.1-.006-1.65-.006-.014 0-.03.004-.06.008l-.98 3.468h-2.72c.293-1.03.59-2.047.884-3.064.292-1.015.588-2.03.883-3.044.295-1.017.59-2.035.888-3.07H9.894v.002c.13.025.26.048.388.075.31.07.61.17.887.33.607.35.94.88.993 1.577.058.76-.197 1.41-.722 1.957a2.62 2.62 0 0 1-.636.5l-.07.046.103.077c.33.245.586.546.72.94.1.298.12.606.096.916-.03.407-.132.797-.316 1.163-.13.262-.302.495-.532.68a.772.772 0 0 0-.06.053c-.436.415-.963.634-1.548.734a7.714 7.714 0 0 1-1.287.113c-1.872.003-3.743.003-5.613.003-.038 0-.075-.004-.13-.007.17-.62.35-1.226.524-1.833.175-.61.352-1.216.527-1.825l.53-1.835.528-1.824.53-1.83-.04-.01H0V25h25z"/></svg>