<svg xmlns="http://www.w3.org/2000/svg" width="25" height="25" viewBox="0 0 25 25"><path fill="#F6F5F5" d="M0 0h25v25H0z"/><path fill="#ED1C24" d="M5.14 11.568c-.066.157-.13.29-.178.428-.24.723-.225 1.452-.045 2.184.01.04.05.078.085.103.85.617 1.7 1.234 2.553 1.844.13.092.195.188.214.35.093.813.202 1.623.305 2.434.016.127.015.127.143.127h3.202a.31.31 0 0 1 .198.07c.18.133.36.264.553.376.21.123.438.13.65.005a6.4 6.4 0 0 0 .56-.378.322.322 0 0 1 .206-.074c1.07.002 2.14 0 3.21.004.093 0 .122-.032.13-.116.018-.176.043-.35.065-.525.086-.675.173-1.35.256-2.023a.224.224 0 0 1 .1-.174c.887-.64 1.773-1.28 2.658-1.923a.236.236 0 0 0 .087-.132c.044-.228.092-.457.11-.687.05-.582-.013-1.15-.25-1.692-.028-.06-.06-.12-.096-.19l-4.844 4.926-.017-.015.057-.073c1.532-1.878 3.064-3.757 4.6-5.633a.27.27 0 0 0 .056-.268 1.39 1.39 0 0 0-.033-.11 5.435 5.435 0 0 0-.73-1.336 2.85 2.85 0 0 0-.326-.368c-.1-.097-.11-.088-.178.03-1.373 2.38-2.744 4.76-4.115 7.14l-.06.1a.143.143 0 0 1 .018-.09c1.223-2.61 2.445-5.22 3.672-7.828.06-.126.05-.215-.04-.308a4.543 4.543 0 0 0-1.07-.896c-.22-.136-.445-.255-.7-.305-.126-.025-.13-.02-.166.1-.838 2.935-1.674 5.87-2.51 8.806-.023.08-.048.157-.07.235-.012-.012-.013-.02-.01-.03.293-1.47.588-2.94.883-4.41l.98-4.887c.05-.245.05-.252-.177-.367-.648-.327-1.34-.442-2.06-.393-.083.004-.113.033-.116.115-.01.326-.026.653-.04.98l-.105 2.707-.105 2.698-.113 2.982-.023.533a.182.182 0 0 1-.026-.1l-.052-1.313c-.04-1.038-.083-2.076-.124-3.114l-.106-2.655c-.036-.908-.073-1.816-.106-2.725-.003-.075-.028-.1-.1-.11a3.54 3.54 0 0 0-.948.04c-.44.07-.866.19-1.252.426-.075.046-.096.092-.078.178.148.717.29 1.435.435 2.153l1.355 6.765.094.48a.144.144 0 0 1-.042-.076l-1.69-5.93c-.287-1.004-.575-2.008-.858-3.012-.02-.075-.057-.098-.125-.08-.09.022-.182.042-.27.075-.296.114-.56.285-.813.473a4.03 4.03 0 0 0-.733.672c-.07.086-.09.162-.037.276 1.236 2.627 2.467 5.256 3.698 7.885l.047.106a.265.265 0 0 1-.067-.084l-3.01-5.222c-.385-.67-.772-1.34-1.155-2.012-.042-.076-.08-.085-.14-.03-.065.06-.135.116-.19.183a5.51 5.51 0 0 0-.896 1.552c-.063.164-.042.288.075.432 1.52 1.853 3.034 3.713 4.55 5.57.015.02.03.04.044.062l-.017.012-4.838-4.92zm3.932 9.12c-.77 0-1.54 0-2.31.003-.08 0-.105-.023-.114-.1-.066-.584-.137-1.168-.206-1.75-.062-.523-.123-1.046-.182-1.57a.214.214 0 0 0-.096-.164c-.848-.608-1.69-1.223-2.542-1.827a.665.665 0 0 1-.29-.47 9.438 9.438 0 0 1-.138-2.135 8.998 8.998 0 0 1 1.134-3.92 9.47 9.47 0 0 1 3.88-3.82 9.04 9.04 0 0 1 2.797-.947 9.054 9.054 0 0 1 2.187-.097c1.3.1 2.528.458 3.67 1.088 2.04 1.124 3.49 2.774 4.346 4.942.275.697.45 1.42.54 2.166a7.91 7.91 0 0 1 .044 1.656c-.04.43-.112.856-.178 1.282-.008.052-.057.11-.102.142-.474.353-.95.704-1.427 1.05-.42.306-.846.606-1.27.906a.154.154 0 0 0-.073.12c-.08.693-.162 1.385-.244 2.076-.052.435-.106.87-.155 1.305-.007.063-.035.07-.085.068H17.19l-3.12.003c-.166 0-.33 0-.495.006-.036 0-.08.02-.106.044a1.393 1.393 0 0 1-1.944-.003.192.192 0 0 0-.116-.042 93.15 93.15 0 0 0-1.182-.01H9.073z"/><path fill="#FFD500" d="M5.14 11.568c1.625 1.654 3.23 3.287 4.837 4.92l.017-.01-.045-.063c-1.516-1.858-3.03-3.717-4.55-5.57-.12-.144-.14-.268-.076-.432A5.48 5.48 0 0 1 6.22 8.86c.056-.067.126-.122.19-.182.06-.054.097-.046.14.03.383.67.77 1.34 1.156 2.01 1.003 1.742 2.006 3.483 3.01 5.223.016.03.035.06.066.085l-.047-.107c-1.232-2.63-2.463-5.258-3.698-7.885-.053-.113-.034-.188.037-.275a4.03 4.03 0 0 1 .733-.672c.253-.188.517-.36.814-.473.088-.033.18-.053.27-.076.07-.017.105.006.126.08.284 1.005.57 2.01.857 3.013l1.69 5.93a.155.155 0 0 0 .043.077l-.094-.48-1.355-6.765c-.144-.72-.287-1.437-.435-2.154-.017-.086.003-.132.077-.177.385-.235.81-.355 1.25-.425.315-.05.63-.074.95-.04.072.01.097.034.1.11.032.91.07 1.817.105 2.726l.106 2.656.125 3.114.052 1.314c0 .033.005.067.026.1.008-.18.017-.356.023-.534l.113-2.982.105-2.7.106-2.707c.014-.325.03-.652.04-.978.003-.08.033-.11.115-.116.722-.05 1.412.066 2.06.394.228.115.227.122.178.367l-.98 4.887-.884 4.41c-.003.01 0 .018.01.03.023-.078.048-.156.07-.234l2.51-8.806c.034-.12.04-.124.166-.1.255.05.482.17.7.305.385.24.742.517 1.042.86l.028.035c.09.093.1.182.04.308-1.227 2.608-2.45 5.218-3.672 7.83a.15.15 0 0 0-.017.088l.06-.097L18.44 8.73c.067-.116.078-.125.178-.028.117.114.23.236.327.368.302.412.552.854.73 1.336.012.036.02.073.032.11a.27.27 0 0 1-.057.268c-1.535 1.876-3.066 3.755-4.6 5.633l-.056.072a.26.26 0 0 1 .017.014l4.845-4.927c.036.072.068.13.095.19.238.542.3 1.11.252 1.694-.02.232-.067.46-.11.688a.23.23 0 0 1-.087.132 542.22 542.22 0 0 1-2.66 1.923.228.228 0 0 0-.098.174c-.083.674-.17 1.348-.255 2.023-.022.175-.046.35-.064.525-.008.084-.037.117-.13.116-1.07-.003-2.14 0-3.21-.003a.32.32 0 0 0-.207.074 6.416 6.416 0 0 1-.56.38.613.613 0 0 1-.65-.006 6.244 6.244 0 0 1-.552-.375.31.31 0 0 0-.198-.073c-1.067.002-2.135 0-3.202 0-.13 0-.127 0-.143-.125-.103-.81-.212-1.62-.306-2.433a.452.452 0 0 0-.215-.352c-.855-.61-1.704-1.227-2.553-1.844-.035-.026-.075-.064-.085-.103-.18-.73-.195-1.46.045-2.183.047-.14.112-.27.177-.43z"/></svg>