<svg xmlns="http://www.w3.org/2000/svg" width="214" height="90" viewBox="0 0 214 90"><g fill="#FFF"><path d="M40.228 38.573l-8.9 18.694L29.278 0H0l6.97 84.683A5.894 5.894 0 0 0 12.85 90h28.825a5.472 5.472 0 0 0 4.894-2.9l21.97-42.095 6.753-45H58.555L40.228 38.573zM137.264 0a3.987 3.987 0 0 0-4 3.364L120.99 85.17a4.3 4.3 0 0 0 4.296 4.83h20.743a3.984 3.984 0 0 0 4-3.387l2.57-17.774c.06-.383.175-.753.344-1.1l-.008.01a19.79 19.79 0 0 1-6.52-7.553c5.143 4.5 13.8 5.254 13.8 5.254H171c18.436-.11 36.194-10.605 37.99-32.722l5-32.73L137.264 0zm46.577 32.983a9.89 9.89 0 0 1-9.484 7.924h-12.73a4.3 4.3 0 0 1-4.3-4.81l1.18-8.166a3.983 3.983 0 0 1 4-3.385h22.645l-1.31 8.438zM116.216.045a2.94 2.94 0 0 0-.53-.045H92.31a2.765 2.765 0 0 0-2.775 2.334l-12.67 84.32a2.97 2.97 0 0 0 2.47 3.3c.167.03.337.044.507.044h23.4a2.758 2.758 0 0 0 2.772-2.337l12.65-84.32a2.96 2.96 0 0 0-2.448-3.295z"/></g></svg>