<svg xmlns="http://www.w3.org/2000/svg" width="290" height="65" viewBox="0 0 290 65"><path fill="#FFF" d="M39.597 48.67c.083.1.014.258-.116.258h-2.94c-3.17 0-6.165-1.435-8.22-3.94l-5.533-6.736L9.03 48.928H.15c-.146 0-.207-.192-.09-.282L19.154 33.83 8.52 20.88c-.084-.103-.015-.26.115-.26h2.943c3.164 0 6.168 1.44 8.222 3.94l4.395 5.354L36.17 20.62h8.874c.146 0 .207.192.09.283L27.828 34.34l11.77 14.33zm36.14-16.974c-.31 1.19-1.796 6.964-2.376 9.06-.653 2.363-1.653 3.876-2.817 5.125-1.272 1.368-3.49 2.66-5.723 3.047-1.457.253-3.848.525-5.767.525H49.94c-1.936 0-3.574-.118-4.866-.377-3.47-.7-5.653-2.385-5.862-5.848-.06-1.01.058-3.153.637-5.374.31-1.192 1.796-6.965 2.375-9.06.654-2.364 1.654-3.876 2.818-5.126 1.272-1.366 3.492-2.658 5.723-3.046 1.457-.252 3.85-.524 5.767-.524h9.114c1.935 0 3.573.118 4.865.377 3.47.7 5.653 2.385 5.862 5.848.06 1.01-.057 3.155-.637 5.376zm-7.545-5.727a42.25 42.25 0 0 0-3.236-.12h-9.08c-1.29 0-2.403.02-3.306.12-2.004.222-3.17.536-4 2.54-.284.693-.6 1.57-.89 2.633-.304 1.125-1.514 5.877-1.76 6.952-.238 1.042-.48 2.148-.596 2.907-.342 2.236-.092 2.412 2.037 2.577a41.79 41.79 0 0 0 3.238.117h9.08c1.29 0 2.403-.02 3.304-.118 2.005-.224 3.173-.54 4-2.543.285-.692.602-1.57.89-2.632.304-1.124 1.514-5.877 1.76-6.952.24-1.042.48-2.148.597-2.907.342-2.236.09-2.412-2.038-2.577zm78.908.35c.06 1.01-.058 3.155-.638 5.377-.31 1.19-1.796 6.964-2.376 9.06-.652 2.363-1.654 3.876-2.817 5.125-1.274 1.367-3.493 2.658-5.724 3.046-1.457.253-3.85.525-5.767.525h-9.116c-1.934 0-3.573-.118-4.864-.377-3.47-.7-5.654-2.385-5.863-5.848-.06-1.01.058-3.153.638-5.374.31-1.192 1.796-6.965 2.376-9.06.653-2.364 1.655-3.876 2.818-5.126 1.273-1.366 3.492-2.658 5.723-3.046 1.458-.253 3.85-.525 5.768-.525h9.115c1.934 0 3.573.118 4.865.377 3.47.697 5.653 2.383 5.862 5.847zm-8.182-.35a42.278 42.278 0 0 0-3.237-.12h-9.08c-1.288 0-2.402.02-3.304.12-2.005.222-3.173.536-4 2.54-.285.693-.603 1.57-.89 2.633-.304 1.125-1.514 5.877-1.76 6.952-.24 1.042-.48 2.148-.597 2.907-.343 2.236-.092 2.412 2.037 2.577a41.74 41.74 0 0 0 3.236.117h9.08c1.29 0 2.403-.02 3.306-.118 2.003-.224 3.17-.54 3.998-2.543.285-.692.604-1.57.89-2.632.305-1.124 1.515-5.877 1.76-6.952.24-1.042.48-2.148.597-2.907.342-2.236.092-2.412-2.037-2.577zm-28.48 5.2c-.26 1.175-1.65 6.63-1.96 7.813-.424 1.61-.964 3.057-1.686 4.324-.855 1.502-2.13 2.998-4.298 4.137-2.557 1.344-6.82 1.485-8.747 1.485H73.64l7.118-28.31h19.32c2.04 0 6.15.273 8.206 1.56 1.964 1.23 2.758 3.46 2.61 5.653-.08 1.213-.178 2.077-.457 3.337zm-5.593-3.142c-.002-1.21-.348-1.39-2.197-1.583-.857-.09-1.934-.068-3.228-.068H85.457l-4.223 16.795h13.174c1.296 0 2.988-.033 4.393-.25 1.29-.202 1.996-.582 2.69-1.86.543-1.004 1.57-4.77 1.925-6.188.382-1.522 1.43-5.593 1.43-6.846zm25.506-11.05c.395.903 1.395 1.814 2.736 1.814.51 0 1.04-.128 1.578-.382 1.727-.814 9.976-5.372 10.06-5.42l.997-.55a.268.268 0 0 0 .117-.332l-.375-.96c-.408-1.05-1.153-1.946-2.143-2.417a4.01 4.01 0 0 0-4.08.353L130 15.653a.27.27 0 0 0-.09.325l.44 1zm101.26 8.778c-1.77-.11-3.55-.1-4.865-.1h-12.51l-2.023 8.042h11.994c1.336 0 3.914 0 5.645-.327.935-.176 1.52-.512 1.89-1.09.2-.308.37-.704.512-1.177.165-.557.684-2.653.808-3.148.437-1.753.374-2.087-1.45-2.2zm33.417 0c-1.77-.11-3.55-.1-4.865-.1h-12.51l-2.023 8.042h11.993c1.336 0 3.914 0 5.645-.327.934-.176 1.52-.512 1.89-1.09.198-.308.368-.704.51-1.177.166-.557.685-2.653.81-3.148.436-1.753.374-2.087-1.45-2.2zm-84.898 12.19h12.717l-3.324-11.75-9.394 11.75zM287.9 29.16l-15.918 21.054c-3.08 4.074-7.79 6.452-12.775 6.452H160.8c-8.08 0-12.65-9.63-7.734-16.293l15.49-20.99c3.076-4.166 7.84-6.61 12.893-6.61h98.785c8.132.002 12.69 9.743 7.665 16.388zM201.366 48.49l-8.11-27.534h-.998c-3.004 0-5.853 1.393-7.77 3.798l-18.9 23.736h6.11l4.67-5.84h17.808l.438 1.546c.72 2.546 2.968 4.293 5.52 4.293h1.232zm35.72-16.385c.228-.76 1.05-4.014 1.206-4.744.168-.786.232-1.49.198-2.148-.045-.733-.203-3.548-5.052-4.04a37.783 37.783 0 0 0-3.935-.218h-15.327c-2.27 0-4.253 1.59-4.828 3.872l-4.87 19.318c-.55 2.197 1.043 4.345 3.23 4.345h.784l1.824-7.26c.42-1.668 1.868-2.83 3.525-2.83h9.698c1.906 0 6.21-.137 8.436-.957 2.318-.856 3.525-2.02 4.134-3.114.38-.68.73-1.412.977-2.227zm34.82-6.89c-.044-.734-.202-3.55-5.052-4.042a37.74 37.74 0 0 0-3.933-.216h-15.327c-2.27 0-4.254 1.59-4.828 3.872l-4.87 19.318c-.55 2.197 1.043 4.345 3.23 4.345h.784l1.823-7.26c.42-1.668 1.868-2.83 3.525-2.83h9.696c1.907 0 6.21-.137 8.437-.957 2.32-.856 3.526-2.02 4.135-3.114.377-.677.73-1.41.974-2.226.227-.76 1.05-4.014 1.206-4.744.17-.786.236-1.49.2-2.148z"/></svg>